<svg width="123" height="40" viewBox="0 0 123 40" fill="none" xmlns="http://www.w3.org/2000/svg">
<path d="M39.0053 26.6297C37.4698 26.6297 36.4247 25.9239 35.9938 24.5854C35.815 24.0353 35.7463 23.4578 35.7463 19.9512C35.7463 16.4447 35.815 15.8671 35.9938 15.317C36.4247 13.9786 37.4698 13.2727 39.0053 13.2727C40.9947 13.2727 42.104 14.3728 42.214 16.4538C42.2222 16.4964 42.222 16.5401 42.2134 16.5826C42.2047 16.6251 42.1878 16.6654 42.1635 16.7013C42.1178 16.7621 42.0506 16.8031 41.9756 16.8159L40.4538 17.0772C40.4098 17.0881 40.3639 17.0884 40.3197 17.0783C40.2756 17.0681 40.2344 17.0477 40.1996 17.0187C40.1648 16.9897 40.1373 16.9529 40.1194 16.9113C40.1014 16.8697 40.0935 16.8245 40.0963 16.7793C40.0321 15.5233 39.5371 15.3537 39.0649 15.3537C38.8659 15.3294 38.6648 15.3796 38.5006 15.4947C38.3364 15.6098 38.2206 15.7817 38.1757 15.9771C38.0886 16.2521 38.0519 16.5226 38.0519 19.9512C38.0519 23.3799 38.0886 23.6503 38.1757 23.9253C38.2206 24.1208 38.3364 24.2926 38.5006 24.4077C38.6648 24.5229 38.8659 24.5731 39.0649 24.5487C39.5233 24.5487 40.0321 24.3791 40.0963 23.114C40.0954 23.0708 40.104 23.0279 40.1214 22.9883C40.1389 22.9487 40.1647 22.9134 40.1971 22.8848C40.2328 22.8565 40.2743 22.8364 40.3187 22.8261C40.3631 22.8158 40.4093 22.8155 40.4538 22.8252L41.9756 23.0865C42.0171 23.0933 42.0567 23.1088 42.0917 23.132C42.1268 23.1551 42.1566 23.1855 42.1791 23.221C42.2016 23.2565 42.2164 23.2963 42.2224 23.3379C42.2284 23.3795 42.2255 23.422 42.214 23.4624C42.104 25.5296 40.9947 26.6297 39.0053 26.6297ZM48.6862 26.4601H43.4516C43.4093 26.4615 43.3672 26.454 43.3279 26.4383C43.2887 26.4226 43.2531 26.3989 43.2234 26.3688C43.1937 26.3387 43.1705 26.3027 43.1554 26.2632C43.1402 26.2237 43.1334 26.1815 43.1353 26.1393V13.754C43.1334 13.7117 43.1402 13.6695 43.1554 13.63C43.1705 13.5905 43.1937 13.5546 43.2234 13.5245C43.2531 13.4944 43.2887 13.4707 43.3279 13.455C43.3672 13.4393 43.4093 13.4318 43.4516 13.4331H45.0788C45.1211 13.4318 45.1632 13.4393 45.2024 13.455C45.2417 13.4707 45.2773 13.4944 45.307 13.5245C45.3367 13.5546 45.3599 13.5905 45.375 13.63C45.3902 13.6695 45.397 13.7117 45.3951 13.754V24.37H48.6816C48.7235 24.3687 48.7652 24.376 48.8042 24.3914C48.8431 24.4069 48.8785 24.4301 48.9081 24.4598C48.9377 24.4894 48.961 24.5248 48.9764 24.5637C48.9919 24.6027 48.9992 24.6444 48.9979 24.6862V26.1301C49.0011 26.1727 48.9954 26.2155 48.9811 26.2558C48.9668 26.2961 48.9443 26.3329 48.9149 26.364C48.8856 26.395 48.8501 26.4196 48.8107 26.4362C48.7713 26.4527 48.7289 26.4609 48.6862 26.4601ZM51.9682 26.4601H50.3364C50.2941 26.4615 50.252 26.454 50.2127 26.4383C50.1735 26.4226 50.1379 26.3989 50.1082 26.3688C50.0785 26.3387 50.0553 26.3027 50.0402 26.2632C50.025 26.2237 50.0182 26.1815 50.0201 26.1393V13.754C50.0182 13.7117 50.025 13.6695 50.0402 13.63C50.0553 13.5905 50.0785 13.5546 50.1082 13.5245C50.1379 13.4944 50.1735 13.4707 50.2127 13.455C50.252 13.4393 50.2941 13.4318 50.3364 13.4331H51.9544C51.9967 13.4318 52.0388 13.4393 52.0781 13.455C52.1173 13.4707 52.153 13.4944 52.1826 13.5245C52.2123 13.5546 52.2355 13.5905 52.2506 13.63C52.2658 13.6695 52.2726 13.7117 52.2707 13.754V26.1301C52.274 26.1731 52.2681 26.2163 52.2536 26.2569C52.239 26.2975 52.216 26.3346 52.1862 26.3657C52.1564 26.3968 52.1203 26.4213 52.0804 26.4376C52.0404 26.4539 51.9975 26.4616 51.9544 26.4601H51.9682ZM62.3412 26.4601H60.8973C60.8547 26.4621 60.8121 26.4551 60.7723 26.4397C60.7325 26.4243 60.6963 26.4007 60.6661 26.3705C60.6359 26.3403 60.6124 26.3042 60.5969 26.2644C60.5815 26.2245 60.5745 26.1819 60.5765 26.1393V18.6128L59.0684 23.907C59.0487 23.989 59.0016 24.0618 58.9349 24.1134C58.8683 24.1651 58.786 24.1925 58.7017 24.1912H57.8766C57.793 24.1927 57.7112 24.166 57.6446 24.1152C57.5781 24.0645 57.5306 23.9927 57.5099 23.9116L55.9973 18.6128V26.1301C55.9992 26.1724 55.9924 26.2146 55.9772 26.2541C55.9621 26.2936 55.9389 26.3295 55.9092 26.3596C55.8795 26.3897 55.8439 26.4134 55.8047 26.4291C55.7654 26.4448 55.7233 26.4523 55.681 26.451H54.2463C54.204 26.4523 54.1619 26.4448 54.1227 26.4291C54.0834 26.4134 54.0478 26.3897 54.0181 26.3596C53.9884 26.3295 53.9653 26.2936 53.9501 26.2541C53.935 26.2146 53.9281 26.1724 53.93 26.1301V13.754C53.9281 13.7117 53.935 13.6695 53.9501 13.63C53.9653 13.5905 53.9884 13.5546 54.0181 13.5245C54.0478 13.4944 54.0834 13.4707 54.1227 13.455C54.1619 13.4393 54.204 13.4318 54.2463 13.4331H55.8781C55.9714 13.4219 56.0656 13.4444 56.1437 13.4965C56.2219 13.5486 56.2789 13.6269 56.3044 13.7173L58.335 20.5929L60.3106 13.7173C60.3362 13.6269 60.3932 13.5486 60.4713 13.4965C60.5495 13.4444 60.6437 13.4219 60.7369 13.4331H62.3504C62.3927 13.4318 62.4348 13.4393 62.474 13.455C62.5133 13.4707 62.5489 13.4944 62.5786 13.5245C62.6083 13.5546 62.6314 13.5905 62.6466 13.63C62.6618 13.6695 62.6686 13.7117 62.6667 13.754V26.1301C62.67 26.1739 62.664 26.2179 62.6489 26.2592C62.6338 26.3005 62.61 26.338 62.5791 26.3693C62.5483 26.4006 62.5111 26.4249 62.47 26.4405C62.429 26.4562 62.3851 26.4629 62.3412 26.4601ZM70.9495 26.4601H69.3727C69.2891 26.4639 69.2073 26.4349 69.1448 26.3793C69.0823 26.3236 69.044 26.2457 69.0381 26.1622L68.5522 23.7007H66.2328L65.7469 26.1668C65.7399 26.2495 65.7012 26.3262 65.6388 26.3809C65.5764 26.4356 65.4952 26.464 65.4123 26.4601H63.8218C63.7797 26.4606 63.738 26.4523 63.6993 26.4357C63.6606 26.4191 63.6259 26.3947 63.5972 26.3639C63.5705 26.3301 63.5517 26.2907 63.5421 26.2487C63.5326 26.2066 63.5326 26.163 63.5422 26.1209L66.2924 13.7448C66.3079 13.6678 66.3489 13.5983 66.4088 13.5476C66.4687 13.4968 66.544 13.4678 66.6225 13.4652H68.1993C68.282 13.4647 68.362 13.4949 68.4238 13.5499C68.4856 13.6049 68.5248 13.6809 68.5339 13.7632L71.2062 26.1301C71.2169 26.1736 71.2174 26.2188 71.2079 26.2625C71.1984 26.3062 71.179 26.3472 71.1512 26.3822C71.0969 26.4338 71.0244 26.4618 70.9495 26.4601ZM66.5858 21.7526H68.1672L67.3925 17.6777L66.5858 21.7526ZM74.7357 26.4601H73.1039C73.0616 26.4615 73.0195 26.454 72.9802 26.4383C72.941 26.4226 72.9054 26.3989 72.8757 26.3688C72.846 26.3387 72.8228 26.3027 72.8077 26.2632C72.7925 26.2237 72.7857 26.1815 72.7876 26.1393V15.5233H70.8533C70.8114 15.5246 70.7697 15.5173 70.7307 15.5018C70.6918 15.4864 70.6564 15.4631 70.6268 15.4335C70.5972 15.4039 70.5739 15.3685 70.5585 15.3296C70.543 15.2906 70.5357 15.2489 70.537 15.207V13.754C70.5351 13.7117 70.5419 13.6695 70.5571 13.63C70.5722 13.5905 70.5954 13.5546 70.6251 13.5245C70.6548 13.4944 70.6903 13.4707 70.7296 13.455C70.7689 13.4393 70.811 13.4318 70.8533 13.4331H76.9863C77.029 13.4312 77.0716 13.4381 77.1114 13.4536C77.1512 13.469 77.1874 13.4926 77.2176 13.5227C77.2477 13.5529 77.2713 13.5891 77.2867 13.6289C77.3022 13.6687 77.3091 13.7113 77.3072 13.754V15.1979C77.3085 15.2401 77.301 15.2822 77.2853 15.3215C77.2696 15.3608 77.2459 15.3964 77.2158 15.4261C77.1857 15.4558 77.1497 15.4789 77.1103 15.4941C77.0708 15.5092 77.0286 15.5161 76.9863 15.5141H75.0565V26.1301C75.0598 26.1735 75.0539 26.2171 75.0391 26.258C75.0242 26.299 75.0009 26.3363 74.9705 26.3675C74.9402 26.3987 74.9036 26.4231 74.8631 26.4391C74.8226 26.455 74.7792 26.4622 74.7357 26.4601ZM83.7565 26.4601H78.5402C78.4977 26.4614 78.4554 26.454 78.4159 26.4383C78.3764 26.4226 78.3406 26.399 78.3105 26.369C78.2804 26.3389 78.2569 26.3031 78.2412 26.2636C78.2255 26.2241 78.2181 26.1818 78.2193 26.1393V13.754C78.2181 13.7115 78.2255 13.6692 78.2412 13.6297C78.2569 13.5902 78.2804 13.5543 78.3105 13.5243C78.3406 13.4942 78.3764 13.4706 78.4159 13.455C78.4554 13.4393 78.4977 13.4319 78.5402 13.4331H83.7703C83.8129 13.4312 83.8555 13.4381 83.8953 13.4536C83.9352 13.469 83.9713 13.4926 84.0015 13.5227C84.0317 13.5529 84.0553 13.5891 84.0707 13.6289C84.0861 13.6687 84.0931 13.7113 84.0911 13.754V15.1979C84.0924 15.2401 84.085 15.2822 84.0693 15.3215C84.0536 15.3608 84.0299 15.3964 83.9998 15.4261C83.9696 15.4558 83.9337 15.4789 83.8942 15.4941C83.8547 15.5092 83.8125 15.5161 83.7703 15.5141H80.4883V18.8374H83.3211C83.3631 18.8361 83.4051 18.8434 83.4442 18.8588C83.4834 18.8742 83.5191 18.8974 83.5491 18.9269C83.5791 18.9565 83.6027 18.9918 83.6187 19.0308C83.6347 19.0698 83.6426 19.1115 83.6419 19.1536V20.6296C83.6426 20.6717 83.6347 20.7135 83.6187 20.7525C83.6027 20.7914 83.5791 20.8268 83.5491 20.8563C83.5191 20.8859 83.4834 20.909 83.4442 20.9244C83.4051 20.9398 83.3631 20.9471 83.3211 20.9459H80.4883V24.402H83.7703C83.8125 24.4001 83.8547 24.407 83.8942 24.4221C83.9337 24.4373 83.9696 24.4604 83.9998 24.4901C84.0299 24.5198 84.0536 24.5554 84.0693 24.5947C84.085 24.634 84.0924 24.676 84.0911 24.7183V26.1301C84.0947 26.1748 84.0884 26.2196 84.0728 26.2616C84.0571 26.3035 84.0325 26.3416 84.0006 26.373C83.9688 26.4045 83.9304 26.4285 83.8882 26.4436C83.8461 26.4586 83.8011 26.4643 83.7565 26.4601ZM89.1791 26.4601H87.5473C87.505 26.4615 87.4629 26.454 87.4236 26.4383C87.3844 26.4226 87.3488 26.3989 87.3191 26.3688C87.2894 26.3387 87.2662 26.3027 87.2511 26.2632C87.2359 26.2237 87.2291 26.1815 87.231 26.1393V15.5233H85.2967C85.2546 15.5246 85.2127 15.5173 85.1735 15.5019C85.1343 15.4865 85.0986 15.4633 85.0686 15.4337C85.0387 15.4042 85.015 15.3689 84.999 15.3299C84.9831 15.2909 84.9752 15.2491 84.9758 15.207V13.754C84.9745 13.7115 84.982 13.6692 84.9976 13.6297C85.0133 13.5902 85.0369 13.5543 85.0669 13.5243C85.097 13.4942 85.1329 13.4706 85.1724 13.455C85.2119 13.4393 85.2542 13.4319 85.2967 13.4331H91.4297C91.472 13.4318 91.5141 13.4393 91.5534 13.455C91.5926 13.4707 91.6282 13.4944 91.6579 13.5245C91.6876 13.5546 91.7108 13.5905 91.7259 13.63C91.7411 13.6695 91.7479 13.7117 91.746 13.754V15.1979C91.7473 15.2397 91.74 15.2814 91.7245 15.3204C91.7091 15.3593 91.6858 15.3947 91.6562 15.4243C91.6266 15.454 91.5912 15.4772 91.5522 15.4927C91.5133 15.5081 91.4716 15.5154 91.4297 15.5141H89.4954V26.1301C89.4986 26.1731 89.4928 26.2163 89.4782 26.2569C89.4636 26.2975 89.4407 26.3346 89.4109 26.3657C89.381 26.3968 89.345 26.4213 89.305 26.4376C89.2651 26.4539 89.2222 26.4616 89.1791 26.4601ZM99.3642 26.4601H97.6178C97.5471 26.4667 97.4763 26.4488 97.4172 26.4097C97.358 26.3705 97.314 26.3123 97.2923 26.2447L95.7568 21.2438H94.918V26.1301C94.9199 26.1728 94.913 26.2154 94.8975 26.2552C94.8821 26.295 94.8585 26.3312 94.8283 26.3614C94.7981 26.3915 94.762 26.4151 94.7222 26.4305C94.6823 26.446 94.6397 26.4529 94.5971 26.451H92.9653C92.923 26.4523 92.8809 26.4448 92.8416 26.4291C92.8024 26.4134 92.7668 26.3897 92.7371 26.3596C92.7074 26.3295 92.6842 26.2936 92.6691 26.2541C92.6539 26.2146 92.6471 26.1724 92.649 26.1301V13.754C92.6471 13.7117 92.6539 13.6695 92.6691 13.63C92.6842 13.5905 92.7074 13.5546 92.7371 13.5245C92.7668 13.4944 92.8024 13.4707 92.8416 13.455C92.8809 13.4393 92.923 13.4318 92.9653 13.4331H95.5368C98.0716 13.4331 99.3046 14.7166 99.3046 17.3522C99.3046 18.9474 98.805 20.0658 97.8103 20.6755L99.5796 26.0934C99.6009 26.1329 99.612 26.177 99.612 26.2218C99.612 26.2666 99.6009 26.3107 99.5796 26.3501C99.5575 26.3867 99.5257 26.4164 99.4876 26.4359C99.4495 26.4553 99.4068 26.4637 99.3642 26.4601ZM94.918 19.1995H95.5551C96.5177 19.1995 97.0402 18.9061 97.0402 17.366C97.0402 15.8258 96.5177 15.5325 95.5551 15.5325H94.918V19.1995ZM107.39 26.4601H105.795C105.712 26.4628 105.631 26.4334 105.568 26.3779C105.506 26.3225 105.468 26.2453 105.461 26.1622L104.975 23.7007H102.66L102.174 26.1668C102.167 26.2495 102.128 26.3262 102.066 26.3809C102.003 26.4356 101.922 26.464 101.839 26.4601H100.244C100.203 26.4611 100.162 26.453 100.124 26.4364C100.086 26.4198 100.052 26.395 100.024 26.3639C99.997 26.3303 99.9776 26.2911 99.9673 26.2491C99.957 26.2071 99.9561 26.1633 99.9647 26.1209L102.715 13.7448C102.729 13.6671 102.769 13.5966 102.83 13.5456C102.89 13.4945 102.966 13.4661 103.045 13.4652H104.622C104.704 13.4657 104.784 13.4962 104.845 13.5511C104.907 13.6059 104.946 13.6813 104.956 13.7632L107.656 26.1393C107.666 26.1831 107.665 26.2284 107.655 26.272C107.644 26.3156 107.625 26.3564 107.597 26.3914C107.54 26.4408 107.465 26.4655 107.39 26.4601ZM103.027 21.7526H104.608L103.833 17.6777L103.027 21.7526ZM111.795 26.4601H108.853C108.81 26.4615 108.768 26.454 108.729 26.4383C108.69 26.4226 108.654 26.3989 108.624 26.3688C108.595 26.3387 108.572 26.3027 108.556 26.2632C108.541 26.2237 108.534 26.1815 108.536 26.1393V13.754C108.534 13.7117 108.541 13.6695 108.556 13.63C108.572 13.5905 108.595 13.5546 108.624 13.5245C108.654 13.4944 108.69 13.4707 108.729 13.455C108.768 13.4393 108.81 13.4318 108.853 13.4331H111.795C113.491 13.4331 114.546 14.1299 115.004 15.5692C115.224 16.2476 115.329 17.0726 115.329 19.9421C115.329 22.8115 115.224 23.6366 115.004 24.3149C114.546 25.7588 113.491 26.4601 111.795 26.4601ZM110.801 24.3791H111.589C111.86 24.4114 112.133 24.3448 112.359 24.1915C112.585 24.0382 112.748 23.8086 112.818 23.5449C112.964 23.0865 113.038 22.431 113.038 19.9512C113.038 17.4714 112.964 16.8159 112.818 16.353C112.746 16.0906 112.583 15.8626 112.357 15.7104C112.132 15.5581 111.859 15.4918 111.589 15.5233H110.801V24.3791ZM122.301 26.4601H117.067C117.024 26.4615 116.982 26.454 116.943 26.4383C116.904 26.4226 116.868 26.3989 116.838 26.3688C116.809 26.3387 116.786 26.3027 116.77 26.2632C116.755 26.2237 116.748 26.1815 116.75 26.1393V13.754C116.748 13.7117 116.755 13.6695 116.77 13.63C116.786 13.5905 116.809 13.5546 116.838 13.5245C116.868 13.4944 116.904 13.4707 116.943 13.455C116.982 13.4393 117.024 13.4318 117.067 13.4331H122.301C122.344 13.4318 122.386 13.4393 122.425 13.455C122.464 13.4707 122.5 13.4944 122.529 13.5245C122.559 13.5546 122.582 13.5905 122.598 13.63C122.613 13.6695 122.619 13.7117 122.618 13.754V15.1979C122.619 15.2397 122.612 15.2814 122.596 15.3204C122.581 15.3593 122.557 15.3947 122.528 15.4243C122.498 15.454 122.463 15.4772 122.424 15.4927C122.385 15.5081 122.343 15.5154 122.301 15.5141H119.019V18.8374H121.857C121.899 18.8361 121.94 18.8434 121.979 18.8589C122.018 18.8743 122.054 18.8976 122.083 18.9272C122.113 18.9568 122.136 18.9922 122.151 19.0311C122.167 19.0701 122.174 19.1118 122.173 19.1536V20.6296C122.174 20.6715 122.167 20.7132 122.151 20.7521C122.136 20.7911 122.113 20.8265 122.083 20.8561C122.054 20.8857 122.018 20.909 121.979 20.9244C121.94 20.9399 121.899 20.9472 121.857 20.9459H119.024V24.402H122.31C122.352 24.4008 122.394 24.4081 122.433 24.4235C122.472 24.439 122.507 24.4622 122.537 24.4919C122.567 24.5215 122.59 24.5569 122.605 24.5958C122.621 24.6348 122.628 24.6764 122.627 24.7183V26.1301C122.63 26.1739 122.624 26.2179 122.609 26.2592C122.594 26.3005 122.57 26.338 122.539 26.3693C122.508 26.4006 122.471 26.4249 122.43 26.4405C122.389 26.4562 122.345 26.4629 122.301 26.4601ZM27.8164 27.6198L33.7478 33.5512C33.8269 33.6305 33.889 33.725 33.9305 33.829C33.9719 33.933 33.9917 34.0444 33.9887 34.1563C33.9857 34.2682 33.9599 34.3783 33.913 34.48C33.8661 34.5817 33.7989 34.6727 33.7157 34.7476C24.0394 43.6263 7.73956 41.2473 1.62942 27.6198C0.555287 25.2237 0 22.6275 0 20.0016C0 17.3758 0.555287 14.7796 1.62942 12.3834C7.76248 -1.24864 24.0623 -3.6276 33.7386 5.25571C33.8218 5.33059 33.889 5.42162 33.9359 5.52328C33.9828 5.62493 34.0086 5.73507 34.0116 5.847C34.0146 5.95892 33.9948 6.07029 33.9534 6.17431C33.912 6.27833 33.8498 6.37284 33.7707 6.45207C32.4185 7.8272 29.1319 11.0954 27.8118 12.4109C27.6697 12.553 27.479 12.6357 27.2782 12.6425C27.0774 12.6493 26.8815 12.5797 26.7301 12.4476C21.8942 8.2764 14.0193 9.49568 10.9619 16.1146C10.3945 17.3457 10.1006 18.6851 10.1006 20.0406C10.1006 21.3961 10.3945 22.7355 10.9619 23.9666C14.0193 30.5764 21.8988 31.7911 26.7346 27.6336C26.8797 27.4948 27.072 27.4162 27.2728 27.4136C27.4736 27.411 27.6678 27.4848 27.8164 27.6198ZM27.523 24.0124C27.523 23.8058 27.6051 23.6076 27.7513 23.4614C27.8974 23.3153 28.0956 23.2332 28.3023 23.2332V23.797C28.3028 23.8652 28.2935 23.9331 28.2748 23.9987L28.1189 24.2966C28.0466 24.3864 27.9552 24.4589 27.8513 24.5089C27.7474 24.5588 27.6337 24.585 27.5185 24.5854V24.017L27.523 24.0124ZM11.0628 19.9604C11.0628 19.7037 11.0628 19.4516 11.0995 19.1995L11.4387 19.5433H12.5342C12.7312 19.5437 12.9204 19.621 13.0613 19.7587L13.8772 20.5746H14.1935C14.358 20.5758 14.5154 20.642 14.6313 20.7588C14.7472 20.8756 14.8123 21.0335 14.8123 21.198V22.0047L12.2958 24.5212C11.4941 23.1399 11.0719 21.5712 11.0719 19.9741L11.0628 19.9604ZM20.3678 14.822C20.4125 14.777 20.4657 14.7412 20.5243 14.7168C20.583 14.6924 20.6458 14.6799 20.7093 14.6799C20.7728 14.6799 20.8356 14.6924 20.8942 14.7168C20.9528 14.7412 21.006 14.777 21.0508 14.822C20.9598 14.9119 20.8371 14.9622 20.7093 14.9622C20.5814 14.9622 20.4587 14.9119 20.3678 14.822ZM11.5716 17.0039C11.9498 15.9085 12.5367 14.8967 13.2997 14.0244C13.4382 14.0381 13.5667 14.103 13.66 14.2065C13.7532 14.3099 13.8045 14.4444 13.8039 14.5836V14.7716L11.5716 17.0039ZM21.3808 13.9969C21.5024 13.9969 21.619 14.0452 21.7049 14.1312C21.7909 14.2171 21.8392 14.3337 21.8392 14.4553V15.2437C21.7103 15.2437 21.5867 15.1925 21.4956 15.1014C21.4045 15.0103 21.3533 14.8867 21.3533 14.7578V13.9969H21.3808ZM17.8605 13.9373C17.9197 13.8763 17.9911 13.8284 18.0701 13.7968C18.1491 13.7652 18.2339 13.7506 18.3189 13.754C18.4037 13.7517 18.4882 13.7668 18.567 13.7984C18.6458 13.8299 18.7173 13.8772 18.7772 13.9373C18.6596 14.0541 18.5006 14.1196 18.3349 14.1196C18.1692 14.1196 18.0102 14.0541 17.8926 13.9373H17.8605ZM25.1257 12.3789H25.1716C26.2205 13.0761 27.113 13.9838 27.7924 15.0443C28.4718 16.1048 28.9233 17.2951 29.1182 18.5394H28.6598L28.0731 17.9527L27.8072 18.2186L29.0082 19.4195L28.6781 19.7495C28.5928 19.8369 28.4908 19.9062 28.3782 19.9536C28.2657 20.001 28.1448 20.0254 28.0227 20.0254C27.9005 20.0254 27.7797 20.001 27.6671 19.9536C27.5545 19.9062 27.4526 19.8369 27.3672 19.7495L26.4275 18.7961L26.1204 19.1032L27.7201 20.6984C27.8327 20.8117 27.8958 20.965 27.8958 21.1247C27.8958 21.2844 27.8327 21.4376 27.7201 21.5509L26.8034 22.4677V25.1354L25.6162 26.3226H25.1991C24.9486 26.3226 24.7085 26.2232 24.5314 26.0461C24.3543 25.869 24.2548 25.6288 24.2548 25.3784V24.0033L23.989 23.7374C23.7456 23.4943 23.6088 23.1646 23.6085 22.8206V21.6518H22.105L20.8308 20.3775V19.0024L22.105 17.7281H23.1685C23.2921 17.7268 23.4147 17.7504 23.5289 17.7977C23.6431 17.845 23.7466 17.9148 23.8331 18.0031L24.1036 18.2781H25.7858L26.4459 17.6135L25.8271 17.0497L25.5291 16.7563H24.947L24.594 17.1093H23.6773L23.0355 16.463H22.5038L21.7017 17.2651L21.4954 17.0589C21.372 16.9337 21.3027 16.7649 21.3027 16.589C21.3027 16.4132 21.372 16.2444 21.4954 16.1192L21.885 15.7296H22.4351V15.1795L22.9714 14.6478H24.319V14.1161L24.9653 13.4744L24.6124 13.1214L23.6956 14.0382L23.6314 13.9694C23.5782 13.9166 23.536 13.8538 23.5072 13.7845C23.4783 13.7153 23.4635 13.641 23.4635 13.566C23.4635 13.4911 23.4783 13.4168 23.5072 13.3476C23.536 13.2784 23.5782 13.2155 23.6314 13.1627L24.4061 12.3789H25.1257ZM14.8352 12.5851C15.7081 11.9581 16.6861 11.4924 17.723 11.21C17.8416 11.3334 17.9087 11.4973 17.9109 11.6684V12.5393L15.917 14.5332L15.4907 14.1069C15.3817 13.999 15.2951 13.8705 15.2361 13.7288C15.1771 13.5872 15.1468 13.4353 15.1469 13.2819V12.9014L14.8352 12.5851Z" fill="#003E6F"/>
</svg>
