<svg width="14" height="12" viewBox="0 0 14 12" fill="none" xmlns="http://www.w3.org/2000/svg">
<path d="M1.44412 2.66667H0.333008V5.44445H0.338563L0.333008 10.4444C0.333008 11.0556 0.833008 11.5556 1.44412 11.5556H11.4441V10.4444H1.44412V2.66667ZM12.5552 1.55556H8.11079L6.99967 0.444445H3.66634C3.05523 0.444445 2.56079 0.944445 2.56079 1.55556L2.55523 8.22222C2.55523 8.83333 3.05523 9.33333 3.66634 9.33333H12.5552C13.1663 9.33333 13.6663 8.83333 13.6663 8.22222V2.66667C13.6663 2.05556 13.1663 1.55556 12.5552 1.55556ZM4.2219 7.66667L6.7219 4.33333L8.66634 6.83889L10.0552 5.16667L11.9997 7.66667H4.2219Z" fill="#021120"/>
</svg>
