<svg width="14" height="14" viewBox="0 0 14 14" fill="none" xmlns="http://www.w3.org/2000/svg">
<path fill-rule="evenodd" clip-rule="evenodd" d="M2.99967 0.333332H10.9997C12.4724 0.333332 13.6663 1.52724 13.6663 3V11C13.6663 12.4728 12.4724 13.6667 10.9997 13.6667H2.99967C1.52692 13.6667 0.333008 12.4728 0.333008 11V3C0.333008 1.52724 1.52692 0.333332 2.99967 0.333332ZM2.99967 1.66667C2.26329 1.66667 1.66634 2.26362 1.66634 3V11C1.66634 11.7364 2.26329 12.3333 2.99967 12.3333H10.9997C11.7361 12.3333 12.333 11.7364 12.333 11V3C12.333 2.26362 11.7361 1.66667 10.9997 1.66667H2.99967ZM3.66634 4.33333C3.29815 4.33333 2.99967 4.03486 2.99967 3.66667C2.99967 3.29848 3.29815 3 3.66634 3H10.333C10.7012 3 10.9997 3.29848 10.9997 3.66667C10.9997 4.03486 10.7012 4.33333 10.333 4.33333H3.66634ZM3.66634 7.66667C3.29815 7.66667 2.99967 7.36819 2.99967 7C2.99967 6.63181 3.29815 6.33333 3.66634 6.33333H10.333C10.7012 6.33333 10.9997 6.63181 10.9997 7C10.9997 7.36819 10.7012 7.66667 10.333 7.66667H3.66634ZM3.66634 11C3.29815 11 2.99967 10.7015 2.99967 10.3333C2.99967 9.96514 3.29815 9.66667 3.66634 9.66667H6.99967C7.36786 9.66667 7.66634 9.96514 7.66634 10.3333C7.66634 10.7015 7.36786 11 6.99967 11H3.66634Z" fill="#777E8B"/>
</svg>
