<svg width="16" height="16" viewBox="0 0 16 16" fill="none" xmlns="http://www.w3.org/2000/svg">
<path fill-rule="evenodd" clip-rule="evenodd" d="M14.5224 15.3175C14.9987 15.4233 15.4236 14.9984 15.3178 14.522L14.5861 11.2293C15.0752 10.2336 15.3337 9.13479 15.3337 8C15.3337 3.94991 12.0504 0.666666 8.00033 0.666666C3.95024 0.666666 0.666992 3.94991 0.666992 8C0.666992 12.0501 3.95024 15.3333 8.00033 15.3333C9.13511 15.3333 10.2339 15.0748 11.2296 14.5857L14.5224 15.3175ZM13.2952 10.8249C13.2201 10.9654 13.1977 11.1282 13.2323 11.2838L13.7889 13.7886L11.2842 13.232C11.1286 13.1974 10.9657 13.2197 10.8252 13.2949C9.96358 13.7556 9.00032 14 8.00033 14C4.68662 14 2.00033 11.3137 2.00033 8C2.00033 4.68629 4.68662 2 8.00033 2C11.314 2 14.0003 4.68629 14.0003 8C14.0003 9 13.756 9.96325 13.2952 10.8249Z" fill="#777E8B"/>
<path fill-rule="evenodd" clip-rule="evenodd" d="M6.00033 9.33333C6.73671 9.33333 7.33366 8.73638 7.33366 8C7.33366 7.26362 6.73671 6.66667 6.00033 6.66667C5.26395 6.66667 4.66699 7.26362 4.66699 8C4.66699 8.73638 5.26395 9.33333 6.00033 9.33333Z" fill="#777E8B"/>
<path fill-rule="evenodd" clip-rule="evenodd" d="M10.0003 9.33333C10.7367 9.33333 11.3337 8.73638 11.3337 8C11.3337 7.26362 10.7367 6.66667 10.0003 6.66667C9.26395 6.66667 8.66699 7.26362 8.66699 8C8.66699 8.73638 9.26395 9.33333 10.0003 9.33333Z" fill="#777E8B"/>
</svg>
