<svg width="14" height="16" viewBox="0 0 14 16" fill="none" xmlns="http://www.w3.org/2000/svg">
<path fill-rule="evenodd" clip-rule="evenodd" d="M6.99967 10.4211C8.34742 10.4211 9.43999 9.33711 9.43999 8C9.43999 6.66289 8.34742 5.57895 6.99967 5.57895C5.65193 5.57895 4.55936 6.66289 4.55936 8C4.55936 9.33711 5.65193 10.4211 6.99967 10.4211ZM6.99967 9.08772C6.39417 9.08772 5.9033 8.60073 5.9033 8C5.9033 7.39927 6.39417 6.91228 6.99967 6.91228C7.60518 6.91228 8.09605 7.39927 8.09605 8C8.09605 8.60073 7.60518 9.08772 6.99967 9.08772Z" fill="#777E8B"/>
<path fill-rule="evenodd" clip-rule="evenodd" d="M5.06254 2.22605C5.25539 1.31723 6.06355 0.666668 6.99967 0.666668C7.9358 0.666668 8.74396 1.31723 8.93681 2.22605L8.97437 2.40305C9.67882 2.64734 10.3323 3.02012 10.8995 3.5044L11.0713 3.44865C11.961 3.15994 12.933 3.52902 13.401 4.33333C13.8691 5.13765 13.7053 6.15729 13.0084 6.7774L12.8738 6.89713C13.013 7.62658 13.0117 8.37444 12.8727 9.10183L13.0084 9.22261C13.7053 9.84271 13.8691 10.8624 13.401 11.6667C12.933 12.471 11.961 12.8401 11.0713 12.5514L10.8989 12.4954C10.6181 12.7347 10.3137 12.9489 9.98817 13.1354C9.66267 13.3218 9.32347 13.4763 8.97417 13.5979L8.93681 13.774C8.74396 14.6828 7.9358 15.3333 6.99967 15.3333C6.06355 15.3333 5.25539 14.6828 5.06254 13.774L5.02498 13.597C4.32053 13.3527 3.66705 12.9799 3.09988 12.4956L2.92808 12.5514C2.03833 12.8401 1.06637 12.471 0.598302 11.6667C0.130237 10.8624 0.294041 9.84271 0.990936 9.22261L1.1255 9.10287C0.986358 8.37342 0.987687 7.62556 1.12666 6.89817L0.990936 6.7774C0.294041 6.15729 0.130237 5.13765 0.598302 4.33333C1.06637 3.52902 2.03833 3.15994 2.92808 3.44865L3.10041 3.50457C3.38125 3.26528 3.68567 3.05107 4.01118 2.86462C4.33668 2.67817 4.67588 2.52373 5.02518 2.40207L5.06254 2.22605ZM6.99967 2C6.69908 2 6.43957 2.2089 6.37765 2.50073L6.2592 3.05889C6.20732 3.30338 6.02201 3.49856 5.77912 3.56455C5.39908 3.66779 5.03152 3.81978 4.68315 4.01932C4.33477 4.21887 4.01833 4.45868 3.73818 4.73359C3.55913 4.90928 3.2961 4.97091 3.05674 4.89324L2.51029 4.71592C2.22459 4.62322 1.91249 4.74173 1.76219 5C1.61189 5.25827 1.66449 5.58568 1.88826 5.7848L2.31736 6.16662C2.50494 6.33353 2.58263 6.59052 2.51861 6.8323C2.31605 7.59732 2.3139 8.40194 2.51738 9.16825C2.58161 9.41014 2.50395 9.66735 2.31625 9.83437L1.88826 10.2152C1.66449 10.4143 1.61189 10.7417 1.76219 11C1.91249 11.2583 2.22459 11.3768 2.51029 11.2841L3.05671 11.1068C3.29635 11.029 3.55971 11.0909 3.73875 11.267C4.30593 11.825 5.00937 12.2255 5.77845 12.4339C6.02151 12.4998 6.207 12.6951 6.2589 12.9397L6.37765 13.4993C6.43957 13.7911 6.69908 14 6.99967 14C7.30027 14 7.55978 13.7911 7.6217 13.4993L7.74014 12.9411C7.79202 12.6966 7.97734 12.5014 8.22023 12.4355C8.60027 12.3322 8.96783 12.1802 9.3162 11.9807C9.66458 11.7811 9.98102 11.5413 10.2612 11.2664C10.4402 11.0907 10.7033 11.0291 10.9426 11.1068L11.4891 11.2841C11.7748 11.3768 12.0869 11.2583 12.2372 11C12.3875 10.7417 12.3349 10.4143 12.1111 10.2152L11.682 9.83338C11.4944 9.66647 11.4167 9.40948 11.4807 9.1677C11.6833 8.40268 11.6854 7.59806 11.482 6.83175C11.4177 6.58986 11.4954 6.33265 11.6831 6.16563L12.1111 5.7848C12.3349 5.58568 12.3875 5.25827 12.2372 5C12.0869 4.74173 11.7748 4.62322 11.4891 4.71592L10.9426 4.89323C10.703 4.97099 10.4396 4.90912 10.2606 4.73298C9.69342 4.175 8.98998 3.77453 8.2209 3.56606C7.97784 3.50018 7.79235 3.30493 7.74045 3.06031L7.6217 2.50073C7.55978 2.2089 7.30027 2 6.99967 2Z" fill="#777E8B"/>
</svg>
