<svg width="14" height="14" viewBox="0 0 14 14" fill="none" xmlns="http://www.w3.org/2000/svg">
<path fill-rule="evenodd" clip-rule="evenodd" d="M3.66634 7H2.99967C1.52692 7 0.333008 8.19391 0.333008 9.66667V11C0.333008 12.4728 1.52692 13.6667 2.99967 13.6667H3.66634C5.1391 13.6667 6.33301 12.4728 6.33301 11V9.66667C6.33301 8.19391 5.1391 7 3.66634 7ZM1.66634 9.66667C1.66634 8.93029 2.26329 8.33334 2.99967 8.33334H3.66634C4.40272 8.33334 4.99967 8.93029 4.99967 9.66667V11C4.99967 11.7364 4.40272 12.3333 3.66634 12.3333H2.99967C2.26329 12.3333 1.66634 11.7364 1.66634 11V9.66667Z" fill="#777E8B"/>
<path fill-rule="evenodd" clip-rule="evenodd" d="M4.99967 2.66667C4.99967 1.378 3.95501 0.333336 2.66634 0.333336C1.37768 0.333336 0.333008 1.378 0.333008 2.66667V3.33334C0.333008 4.622 1.37768 5.66667 2.66634 5.66667C3.95501 5.66667 4.99967 4.622 4.99967 3.33334V2.66667ZM1.66634 2.66667C1.66634 2.11438 2.11406 1.66667 2.66634 1.66667C3.21863 1.66667 3.66634 2.11438 3.66634 2.66667V3.33334C3.66634 3.88562 3.21863 4.33334 2.66634 4.33334C2.11406 4.33334 1.66634 3.88562 1.66634 3.33334V2.66667Z" fill="#777E8B"/>
<path fill-rule="evenodd" clip-rule="evenodd" d="M10.9997 6.33334H10.333C8.86025 6.33334 7.66634 7.52724 7.66634 9V11C7.66634 12.4728 8.86025 13.6667 10.333 13.6667H10.9997C12.4724 13.6667 13.6663 12.4728 13.6663 11V9C13.6663 7.52724 12.4724 6.33334 10.9997 6.33334ZM8.99967 9C8.99967 8.26362 9.59663 7.66667 10.333 7.66667H10.9997C11.7361 7.66667 12.333 8.26362 12.333 9V11C12.333 11.7364 11.7361 12.3333 10.9997 12.3333H10.333C9.59663 12.3333 8.99967 11.7364 8.99967 11V9Z" fill="#777E8B"/>
<path fill-rule="evenodd" clip-rule="evenodd" d="M11.333 0.333336H8.66634C7.37768 0.333336 6.33301 1.378 6.33301 2.66667C6.33301 3.95533 7.37768 5 8.66634 5H11.333C12.6217 5 13.6663 3.95533 13.6663 2.66667C13.6663 1.378 12.6217 0.333336 11.333 0.333336ZM7.66634 2.66667C7.66634 2.11438 8.11406 1.66667 8.66634 1.66667H11.333C11.8853 1.66667 12.333 2.11438 12.333 2.66667C12.333 3.21895 11.8853 3.66667 11.333 3.66667H8.66634C8.11406 3.66667 7.66634 3.21895 7.66634 2.66667Z" fill="#777E8B"/>
</svg>
